<svg width="87" height="87" viewBox="0 0 87 87" fill="none" xmlns="http://www.w3.org/2000/svg">
<rect width="87" height="87" rx="5" fill="#1E213A"/>
<path d="M40.6943 73V54.4404H28.4238V56.2861C28.4238 59.0205 27.3187 60.3877 25.1084 60.3877C23.126 60.3877 21.2347 59.5446 19.4346 57.8584C17.6572 56.1494 16.7686 54.3265 16.7686 52.3896C16.7686 51.4782 17.1217 50.7604 17.8281 50.2363C18.5573 49.7122 19.5599 49.4502 20.8359 49.4502H22.374V34.1035H12.9746V29.2842H55.3232V34.1035H46.7441V73H40.6943ZM40.6943 34.1035H28.4238V49.4502H40.6943V34.1035ZM60.0059 73V34.1035H53.3066V29.2842H55.2207L40.3184 19.0303L43.4287 15.0312L59.2881 26.4131L52.7598 12.2627L57.3057 10.6221L65.6113 29.2842H74.6348V34.1035H66.0557V73H60.0059Z" fill="#5E3A5F"/>
<path d="M30.0734 73.8007C27.3372 67.11 21.1103 53.9054 18.0917 54.6133" stroke="#5E3A5F" stroke-width="5"/>
<path d="M40.6943 73V54.4404H28.4238V56.2861C28.4238 59.0205 27.3187 60.3877 25.1084 60.3877C23.126 60.3877 21.2347 59.5446 19.4346 57.8584C17.6572 56.1494 16.7686 54.3265 16.7686 52.3896C16.7686 51.4782 17.1217 50.7604 17.8281 50.2363C18.5573 49.7122 19.5599 49.4502 20.8359 49.4502H22.374V34.1035H12.9746V29.2842H55.3232V34.1035H46.7441V73H40.6943ZM40.6943 34.1035H28.4238V49.4502H40.6943V34.1035Z" fill="#A6536E"/>
</svg>
